<svg width="1200" height="620" viewBox="0 0 1200 620" xmlns="http://www.w3.org/2000/svg"><defs><linearGradient id="bg" x1="0" y1="0" x2="1" y2="1"><stop offset="0%" stop-color="#F8F5EE"/><stop offset="50%" stop-color="#DFEAE4"/><stop offset="100%" stop-color="#EADFCB"/></linearGradient><linearGradient id="h" x1="0" y1="0" x2="1" y2="0"><stop offset="0%" stop-color="#7FB8B2"/><stop offset="33%" stop-color="#B8A7E8"/><stop offset="66%" stop-color="#D8C47A"/><stop offset="100%" stop-color="#82B98C"/></linearGradient></defs><rect width="1200" height="620" rx="34" fill="url(#bg)"/><circle cx="1060" cy="110" r="150" fill="#C9DCD5" opacity="0.42"/><circle cx="120" cy="560" r="220" fill="#D9C59D" opacity="0.32"/><rect x="56" y="44" width="1088" height="532" rx="30" fill="none" stroke="url(#h)" stroke-width="3" opacity="0.88"/><text x="82" y="94" fill="#153743" font-family="Inter,Arial" font-size="38" font-weight="850">MACI Operational System Map</text><text x="84" y="132" fill="#3B5964" font-family="Inter,Arial" font-size="20">Structured context enters the seam. Consequence remains boundary-governed.</text><g font-family="Inter,Arial" font-weight="850"><rect x="96" y="226" width="158" height="76" rx="18" fill="none" stroke="#7FB8B2" stroke-width="2"/><text x="123" y="258" fill="#153743" font-size="22">Language</text><text x="123" y="282" fill="#3B5964" font-size="15">object</text><rect x="316" y="226" width="158" height="76" rx="18" fill="none" stroke="#3D6B52" stroke-width="2"/><text x="367" y="258" fill="#153743" font-size="22">Input</text><text x="346" y="282" fill="#3B5964" font-size="15">authority</text><rect x="536" y="226" width="178" height="76" rx="18" fill="none" stroke="#B7793E" stroke-width="2"/><text x="559" y="258" fill="#153743" font-size="21">Consequence</text><text x="584" y="282" fill="#3B5964" font-size="15">signal</text><rect x="776" y="226" width="158" height="76" rx="18" fill="none" stroke="#2E5266" stroke-width="2"/><text x="809" y="258" fill="#153743" font-size="22">Boundary</text><text x="823" y="282" fill="#3B5964" font-size="15">review</text><rect x="996" y="226" width="128" height="76" rx="18" fill="none" stroke="#B8A7E8" stroke-width="2"/><text x="1026" y="258" fill="#153743" font-size="22">Replay</text><text x="1025" y="282" fill="#3B5964" font-size="15">proof</text></g><g stroke="url(#h)" stroke-width="4" stroke-linecap="round"><line x1="254" y1="264" x2="316" y2="264"/><line x1="474" y1="264" x2="536" y2="264"/><line x1="714" y1="264" x2="776" y2="264"/><line x1="934" y1="264" x2="996" y2="264"/></g><line x1="116" y1="404" x2="1084" y2="404" stroke="url(#h)" stroke-width="3" opacity="0.82"/><text x="145" y="452" fill="#153743" font-family="Inter,Arial" font-size="24" font-weight="850">Invariant:</text><text x="275" y="452" fill="#3B5964" font-family="Inter,Arial" font-size="22">MACI may inform. It cannot bind consequence without boundary resolution.</text></svg>
